<svg width="1072" height="275" viewBox="0 0 1072 275" fill="none" xmlns="http://www.w3.org/2000/svg">
<rect width="1072" height="275" rx="25" fill="#293037"/>
<path d="M50 67H668.975" stroke="#3178C6" stroke-width="26"/>
<path d="M668.975 67H913.635" stroke="#5ECC64" stroke-width="26"/>
<path d="M913.635 67H1014.65" stroke="#76E1FE" stroke-width="26"/>
<path d="M1014.65 67H1022" stroke="#F1E05A" stroke-width="26"/>
<path d="M97.9232 122.8H115.923V125.176H108.183V148H105.663V125.176H97.9232V122.8ZM123.761 145.084L129.593 130H132.113L124.409 149.656C123.689 151.48 122.681 152.884 121.385 153.868C120.113 154.876 118.697 155.32 117.137 155.2V152.968C119.297 153.232 120.941 151.984 122.069 149.224L122.537 148.108L114.473 130H116.993L123.761 145.084ZM144.633 129.568C147.201 129.568 149.385 130.48 151.185 132.304C153.009 134.128 153.921 136.36 153.921 139C153.921 141.64 153.009 143.872 151.185 145.696C149.385 147.52 147.201 148.432 144.633 148.432C141.441 148.432 139.017 147.112 137.361 144.472V155.2H134.985V130H137.361V133.528C139.017 130.888 141.441 129.568 144.633 129.568ZM139.413 144.076C140.781 145.444 142.461 146.128 144.453 146.128C146.445 146.128 148.125 145.444 149.493 144.076C150.861 142.66 151.545 140.968 151.545 139C151.545 137.008 150.861 135.328 149.493 133.96C148.125 132.568 146.445 131.872 144.453 131.872C142.461 131.872 140.781 132.568 139.413 133.96C138.045 135.328 137.361 137.008 137.361 139C137.361 140.968 138.045 142.66 139.413 144.076ZM166.188 129.568C168.876 129.568 171.024 130.516 172.632 132.412C174.288 134.284 175.116 136.504 175.116 139.072C175.116 139.192 175.092 139.564 175.044 140.188H159.24C159.48 141.988 160.248 143.428 161.544 144.508C162.84 145.588 164.46 146.128 166.404 146.128C169.14 146.128 171.072 145.108 172.2 143.068L174.288 144.292C173.496 145.588 172.404 146.608 171.012 147.352C169.644 148.072 168.096 148.432 166.368 148.432C163.536 148.432 161.232 147.544 159.456 145.768C157.68 143.992 156.792 141.736 156.792 139C156.792 136.288 157.668 134.044 159.42 132.268C161.172 130.468 163.428 129.568 166.188 129.568ZM166.188 131.872C164.316 131.872 162.744 132.424 161.472 133.528C160.224 134.632 159.48 136.084 159.24 137.884H172.668C172.404 135.964 171.672 134.488 170.472 133.456C169.224 132.4 167.796 131.872 166.188 131.872ZM186.472 148.432C184.168 148.432 182.188 147.892 180.532 146.812C178.9 145.708 177.76 144.196 177.112 142.276L179.272 141.016C179.728 142.6 180.568 143.824 181.792 144.688C183.04 145.552 184.612 145.984 186.508 145.984C188.356 145.984 189.808 145.576 190.864 144.76C191.92 143.944 192.448 142.84 192.448 141.448C192.448 140.128 191.968 139.132 191.008 138.46C190.072 137.788 188.488 137.092 186.256 136.372C183.592 135.484 181.864 134.788 181.072 134.284C179.152 133.132 178.192 131.464 178.192 129.28C178.192 127.144 178.936 125.464 180.424 124.24C181.888 122.992 183.724 122.368 185.932 122.368C187.828 122.368 189.508 122.872 190.972 123.88C192.436 124.864 193.528 126.172 194.248 127.804L192.124 128.992C190.972 126.208 188.908 124.816 185.932 124.816C184.348 124.816 183.076 125.212 182.116 126.004C181.18 126.772 180.712 127.828 180.712 129.172C180.712 130.444 181.144 131.38 182.008 131.98C182.896 132.604 184.324 133.24 186.292 133.888L188.236 134.572C188.644 134.692 189.22 134.908 189.964 135.22C190.78 135.532 191.344 135.796 191.656 136.012C192.928 136.78 193.732 137.488 194.068 138.136C194.668 139.096 194.968 140.176 194.968 141.376C194.968 143.512 194.188 145.228 192.628 146.524C191.068 147.796 189.016 148.432 186.472 148.432ZM207.674 148.432C204.962 148.432 202.706 147.532 200.906 145.732C199.106 143.884 198.206 141.64 198.206 139C198.206 136.336 199.106 134.104 200.906 132.304C202.706 130.48 204.962 129.568 207.674 129.568C209.45 129.568 211.046 130 212.462 130.864C213.878 131.704 214.91 132.844 215.558 134.284L213.614 135.4C213.134 134.32 212.354 133.468 211.274 132.844C210.218 132.196 209.018 131.872 207.674 131.872C205.682 131.872 204.002 132.568 202.634 133.96C201.266 135.328 200.582 137.008 200.582 139C200.582 140.968 201.266 142.66 202.634 144.076C204.002 145.444 205.682 146.128 207.674 146.128C208.994 146.128 210.182 145.816 211.238 145.192C212.318 144.568 213.158 143.704 213.758 142.6L215.738 143.752C214.994 145.192 213.902 146.332 212.462 147.172C211.022 148.012 209.426 148.432 207.674 148.432ZM221.525 130V132.988C222.629 130.804 224.525 129.712 227.213 129.712V132.016C225.485 132.016 224.105 132.52 223.073 133.528C222.041 134.512 221.525 136 221.525 137.992V148H219.149V130H221.525ZM233.385 124.456C233.385 124.936 233.217 125.344 232.881 125.68C232.545 126.016 232.137 126.184 231.657 126.184C231.177 126.184 230.769 126.016 230.433 125.68C230.097 125.344 229.929 124.936 229.929 124.456C229.929 123.976 230.097 123.568 230.433 123.232C230.769 122.896 231.177 122.728 231.657 122.728C232.137 122.728 232.545 122.896 232.881 123.232C233.217 123.568 233.385 123.976 233.385 124.456ZM232.845 148H230.469V130H232.845V148ZM247.535 129.568C250.103 129.568 252.287 130.48 254.087 132.304C255.911 134.128 256.823 136.36 256.823 139C256.823 141.64 255.911 143.872 254.087 145.696C252.287 147.52 250.103 148.432 247.535 148.432C244.343 148.432 241.919 147.112 240.263 144.472V155.2H237.887V130H240.263V133.528C241.919 130.888 244.343 129.568 247.535 129.568ZM242.315 144.076C243.683 145.444 245.363 146.128 247.355 146.128C249.347 146.128 251.027 145.444 252.395 144.076C253.763 142.66 254.447 140.968 254.447 139C254.447 137.008 253.763 135.328 252.395 133.96C251.027 132.568 249.347 131.872 247.355 131.872C245.363 131.872 243.683 132.568 242.315 133.96C240.947 135.328 240.263 137.008 240.263 139C240.263 140.968 240.947 142.66 242.315 144.076ZM269.962 130V132.304H264.778V143.212C264.778 144.196 264.97 144.904 265.354 145.336C265.738 145.744 266.314 145.96 267.082 145.984C267.85 145.984 268.81 145.96 269.962 145.912V148C267.394 148.384 265.486 148.204 264.238 147.46C263.014 146.692 262.402 145.276 262.402 143.212V132.304H258.622V130H262.402V125.68L264.778 124.96V130H269.962ZM289.942 131.8C292.39 131.8 294.418 132.58 296.026 134.14C297.61 135.7 298.402 137.692 298.402 140.116C298.402 142.588 297.61 144.592 296.026 146.128C294.466 147.664 292.438 148.432 289.942 148.432C287.446 148.432 285.418 147.664 283.858 146.128C282.274 144.592 281.482 142.588 281.482 140.116C281.482 138.22 281.998 136.54 283.03 135.076L291.274 122.8H294.118L287.926 132.016C288.574 131.872 289.246 131.8 289.942 131.8ZM285.622 144.364C286.75 145.444 288.19 145.984 289.942 145.984C291.718 145.984 293.146 145.444 294.226 144.364C295.33 143.284 295.882 141.868 295.882 140.116C295.882 138.364 295.33 136.948 294.226 135.868C293.146 134.788 291.718 134.248 289.942 134.248C288.19 134.248 286.75 134.788 285.622 135.868C284.542 136.948 284.002 138.364 284.002 140.116C284.002 141.868 284.542 143.284 285.622 144.364ZM315.701 125.176L309.833 133.276C311.825 133.516 313.481 134.296 314.801 135.616C316.121 136.864 316.781 138.556 316.781 140.692C316.781 143.068 315.953 144.964 314.297 146.38C312.689 147.748 310.697 148.432 308.321 148.432C306.425 148.432 304.745 148 303.281 147.136C301.817 146.248 300.797 145.012 300.221 143.428L302.309 142.204C302.717 143.428 303.437 144.364 304.469 145.012C305.525 145.66 306.809 145.984 308.321 145.984C310.097 145.984 311.525 145.516 312.605 144.58C313.709 143.62 314.261 142.324 314.261 140.692C314.261 139.06 313.709 137.776 312.605 136.84C311.525 135.88 310.097 135.4 308.321 135.4V135.364L308.285 135.4H307.601L306.521 133.744L312.785 125.176H300.941V122.8H315.701V125.176ZM323.647 146.38C323.647 146.932 323.455 147.4 323.071 147.784C322.687 148.168 322.219 148.36 321.667 148.36C321.115 148.36 320.647 148.168 320.263 147.784C319.879 147.4 319.687 146.932 319.687 146.38C319.687 145.828 319.879 145.36 320.263 144.976C320.647 144.592 321.115 144.4 321.667 144.4C322.219 144.4 322.687 144.592 323.071 144.976C323.455 145.36 323.647 145.828 323.647 146.38ZM335.364 131.8C337.812 131.8 339.84 132.58 341.448 134.14C343.032 135.7 343.824 137.692 343.824 140.116C343.824 142.588 343.032 144.592 341.448 146.128C339.888 147.664 337.86 148.432 335.364 148.432C332.868 148.432 330.84 147.664 329.28 146.128C327.696 144.592 326.904 142.588 326.904 140.116C326.904 138.22 327.42 136.54 328.452 135.076L336.696 122.8H339.54L333.348 132.016C333.996 131.872 334.668 131.8 335.364 131.8ZM331.044 144.364C332.172 145.444 333.612 145.984 335.364 145.984C337.14 145.984 338.568 145.444 339.648 144.364C340.752 143.284 341.304 141.868 341.304 140.116C341.304 138.364 340.752 136.948 339.648 135.868C338.568 134.788 337.14 134.248 335.364 134.248C333.612 134.248 332.172 134.788 331.044 135.868C329.964 136.948 329.424 138.364 329.424 140.116C329.424 141.868 329.964 143.284 331.044 144.364ZM359.026 135.004C360.322 135.604 361.342 136.444 362.086 137.524C362.83 138.604 363.202 139.816 363.202 141.16C363.202 143.44 362.398 145.228 360.79 146.524C359.158 147.796 357.154 148.432 354.778 148.432C352.402 148.432 350.398 147.796 348.766 146.524C347.158 145.228 346.354 143.44 346.354 141.16C346.354 139.816 346.726 138.604 347.47 137.524C348.214 136.444 349.234 135.604 350.53 135.004C348.298 133.732 347.182 131.848 347.182 129.352C347.182 127.096 347.926 125.368 349.414 124.168C350.95 122.968 352.738 122.368 354.778 122.368C356.842 122.368 358.618 122.968 360.106 124.168C361.618 125.368 362.374 127.096 362.374 129.352C362.374 131.848 361.258 133.732 359.026 135.004ZM349.702 129.352C349.702 130.744 350.182 131.848 351.142 132.664C352.126 133.48 353.338 133.888 354.778 133.888C356.218 133.888 357.418 133.48 358.378 132.664C359.362 131.848 359.854 130.744 359.854 129.352C359.854 127.888 359.386 126.772 358.45 126.004C357.514 125.212 356.29 124.816 354.778 124.816C353.266 124.816 352.042 125.212 351.106 126.004C350.17 126.772 349.702 127.888 349.702 129.352ZM350.494 144.76C351.55 145.576 352.978 145.984 354.778 145.984C356.578 145.984 358.006 145.576 359.062 144.76C360.142 143.92 360.682 142.72 360.682 141.16C360.682 139.624 360.142 138.436 359.062 137.596C357.958 136.756 356.53 136.336 354.778 136.336C353.026 136.336 351.598 136.756 350.494 137.596C349.414 138.436 348.874 139.624 348.874 141.16C348.874 142.744 349.414 143.944 350.494 144.76ZM371.602 133.168C370.018 133.168 368.71 132.652 367.678 131.62C366.622 130.564 366.094 129.28 366.094 127.768C366.094 126.28 366.622 125.008 367.678 123.952C368.734 122.896 370.042 122.368 371.602 122.368C373.162 122.368 374.47 122.896 375.526 123.952C376.582 125.008 377.11 126.28 377.11 127.768C377.11 129.304 376.594 130.588 375.562 131.62C374.53 132.652 373.21 133.168 371.602 133.168ZM368.398 127.768C368.398 128.68 368.698 129.448 369.298 130.072C369.898 130.696 370.666 131.008 371.602 131.008C372.538 131.008 373.306 130.696 373.906 130.072C374.506 129.448 374.806 128.68 374.806 127.768C374.806 126.856 374.506 126.088 373.906 125.464C373.306 124.84 372.538 124.528 371.602 124.528C370.666 124.528 369.898 124.84 369.298 125.464C368.698 126.088 368.398 126.856 368.398 127.768ZM368.866 145.444L367.354 144.58L384.238 125.608L385.786 126.472L368.866 145.444ZM385.714 146.884C384.682 147.916 383.374 148.432 381.79 148.432C380.206 148.432 378.898 147.916 377.866 146.884C376.81 145.828 376.282 144.544 376.282 143.032C376.282 141.544 376.81 140.272 377.866 139.216C378.922 138.16 380.23 137.632 381.79 137.632C383.35 137.632 384.658 138.16 385.714 139.216C386.77 140.272 387.298 141.544 387.298 143.032C387.298 144.544 386.77 145.828 385.714 146.884ZM378.586 143.032C378.586 143.944 378.886 144.712 379.486 145.336C380.086 145.96 380.854 146.272 381.79 146.272C382.726 146.272 383.494 145.96 384.094 145.336C384.694 144.712 384.994 143.944 384.994 143.032C384.994 142.12 384.694 141.352 384.094 140.728C383.494 140.104 382.726 139.792 381.79 139.792C380.854 139.792 380.086 140.104 379.486 140.728C378.886 141.352 378.586 142.12 378.586 143.032Z" fill="white"/>
<ellipse cx="63.6064" cy="135" rx="13.2352" ry="13" fill="#3178C6"/>
<path d="M111.567 204.012H124.167V205.308C124.167 208.428 123.051 211.068 120.819 213.228C118.563 215.364 115.575 216.432 111.855 216.432C108.015 216.432 104.859 215.172 102.387 212.652C99.8912 210.108 98.6432 207.024 98.6432 203.4C98.6432 199.776 99.8912 196.692 102.387 194.148C104.859 191.628 108.015 190.368 111.855 190.368C114.159 190.368 116.295 190.932 118.263 192.06C120.207 193.188 121.707 194.688 122.763 196.56L120.531 197.856C119.739 196.32 118.563 195.096 117.003 194.184C115.443 193.272 113.727 192.816 111.855 192.816C108.687 192.816 106.119 193.836 104.151 195.876C102.159 197.94 101.163 200.448 101.163 203.4C101.163 206.352 102.159 208.86 104.151 210.924C106.119 212.964 108.687 213.984 111.855 213.984C114.687 213.984 116.955 213.276 118.659 211.86C120.339 210.42 121.311 208.596 121.575 206.388H111.567V204.012ZM143.213 213.732C141.365 215.532 139.133 216.432 136.517 216.432C133.853 216.432 131.609 215.532 129.785 213.732C127.961 211.908 127.049 209.664 127.049 207C127.049 204.336 127.961 202.104 129.785 200.304C131.609 198.48 133.853 197.568 136.517 197.568C139.157 197.568 141.389 198.48 143.213 200.304C145.061 202.104 145.985 204.336 145.985 207C145.985 209.64 145.061 211.884 143.213 213.732ZM131.477 212.076C132.845 213.444 134.525 214.128 136.517 214.128C138.509 214.128 140.189 213.444 141.557 212.076C142.925 210.66 143.609 208.968 143.609 207C143.609 205.008 142.925 203.328 141.557 201.96C140.189 200.568 138.509 199.872 136.517 199.872C134.525 199.872 132.845 200.568 131.477 201.96C130.109 203.328 129.425 205.008 129.425 207C129.425 208.968 130.109 210.66 131.477 212.076ZM156.982 193.104L163.642 190.8H165.802V216H163.282V193.572L157.63 195.264L156.982 193.104ZM187.036 212.904C185.38 215.256 183.04 216.432 180.016 216.432C177.016 216.432 174.664 215.256 172.96 212.904C171.304 210.528 170.476 207.36 170.476 203.4C170.476 199.416 171.304 196.26 172.96 193.932C174.664 191.556 177.016 190.368 180.016 190.368C183.04 190.368 185.38 191.556 187.036 193.932C188.716 196.26 189.556 199.416 189.556 203.4C189.556 207.384 188.716 210.552 187.036 212.904ZM174.832 211.212C176.104 213.06 177.832 213.984 180.016 213.984C182.224 213.984 183.94 213.06 185.164 211.212C186.412 209.388 187.036 206.784 187.036 203.4C187.036 200.016 186.412 197.412 185.164 195.588C183.94 193.74 182.224 192.816 180.016 192.816C177.832 192.816 176.104 193.74 174.832 195.588C173.608 197.436 172.996 200.04 172.996 203.4C172.996 206.76 173.608 209.364 174.832 211.212ZM196.382 214.38C196.382 214.932 196.19 215.4 195.806 215.784C195.422 216.168 194.954 216.36 194.402 216.36C193.85 216.36 193.382 216.168 192.998 215.784C192.614 215.4 192.422 214.932 192.422 214.38C192.422 213.828 192.614 213.36 192.998 212.976C193.382 212.592 193.85 212.4 194.402 212.4C194.954 212.4 195.422 212.592 195.806 212.976C196.19 213.36 196.382 213.828 196.382 214.38ZM215.119 193.176L209.251 201.276C211.243 201.516 212.899 202.296 214.219 203.616C215.539 204.864 216.199 206.556 216.199 208.692C216.199 211.068 215.371 212.964 213.715 214.38C212.107 215.748 210.115 216.432 207.739 216.432C205.843 216.432 204.163 216 202.699 215.136C201.235 214.248 200.215 213.012 199.639 211.428L201.727 210.204C202.135 211.428 202.855 212.364 203.887 213.012C204.943 213.66 206.227 213.984 207.739 213.984C209.515 213.984 210.943 213.516 212.023 212.58C213.127 211.62 213.679 210.324 213.679 208.692C213.679 207.06 213.127 205.776 212.023 204.84C210.943 203.88 209.515 203.4 207.739 203.4V203.364L207.703 203.4H207.019L205.939 201.744L212.203 193.176H200.359V190.8H215.119V193.176ZM234.945 198.684C234.945 200.58 234.429 202.26 233.397 203.724L225.153 216H222.309L228.501 206.784C227.853 206.928 227.181 207 226.485 207C223.989 207 221.961 206.232 220.401 204.696C218.817 203.16 218.025 201.156 218.025 198.684C218.025 196.26 218.817 194.268 220.401 192.708C222.009 191.148 224.037 190.368 226.485 190.368C228.933 190.368 230.961 191.148 232.569 192.708C234.153 194.268 234.945 196.26 234.945 198.684ZM222.165 194.436C221.085 195.516 220.545 196.932 220.545 198.684C220.545 200.436 221.085 201.852 222.165 202.932C223.293 204.012 224.733 204.552 226.485 204.552C228.261 204.552 229.689 204.012 230.769 202.932C231.873 201.852 232.425 200.436 232.425 198.684C232.425 196.932 231.873 195.516 230.769 194.436C229.689 193.356 228.261 192.816 226.485 192.816C224.733 192.816 223.293 193.356 222.165 194.436ZM243.703 201.168C242.119 201.168 240.811 200.652 239.779 199.62C238.723 198.564 238.195 197.28 238.195 195.768C238.195 194.28 238.723 193.008 239.779 191.952C240.835 190.896 242.143 190.368 243.703 190.368C245.263 190.368 246.571 190.896 247.627 191.952C248.683 193.008 249.211 194.28 249.211 195.768C249.211 197.304 248.695 198.588 247.663 199.62C246.631 200.652 245.311 201.168 243.703 201.168ZM240.499 195.768C240.499 196.68 240.799 197.448 241.399 198.072C241.999 198.696 242.767 199.008 243.703 199.008C244.639 199.008 245.407 198.696 246.007 198.072C246.607 197.448 246.907 196.68 246.907 195.768C246.907 194.856 246.607 194.088 246.007 193.464C245.407 192.84 244.639 192.528 243.703 192.528C242.767 192.528 241.999 192.84 241.399 193.464C240.799 194.088 240.499 194.856 240.499 195.768ZM240.967 213.444L239.455 212.58L256.339 193.608L257.887 194.472L240.967 213.444ZM257.815 214.884C256.783 215.916 255.475 216.432 253.891 216.432C252.307 216.432 250.999 215.916 249.967 214.884C248.911 213.828 248.383 212.544 248.383 211.032C248.383 209.544 248.911 208.272 249.967 207.216C251.023 206.16 252.331 205.632 253.891 205.632C255.451 205.632 256.759 206.16 257.815 207.216C258.871 208.272 259.399 209.544 259.399 211.032C259.399 212.544 258.871 213.828 257.815 214.884ZM250.687 211.032C250.687 211.944 250.987 212.712 251.587 213.336C252.187 213.96 252.955 214.272 253.891 214.272C254.827 214.272 255.595 213.96 256.195 213.336C256.795 212.712 257.095 211.944 257.095 211.032C257.095 210.12 256.795 209.352 256.195 208.728C255.595 208.104 254.827 207.792 253.891 207.792C252.955 207.792 252.187 208.104 251.587 208.728C250.987 209.352 250.687 210.12 250.687 211.032Z" fill="white"/>
<ellipse cx="63.6064" cy="203" rx="13.2352" ry="13" fill="#76E1FE"/>
<path d="M696.409 148.432C692.569 148.432 689.413 147.172 686.941 144.652C684.445 142.108 683.197 139.024 683.197 135.4C683.197 131.776 684.445 128.692 686.941 126.148C689.413 123.628 692.569 122.368 696.409 122.368C698.713 122.368 700.837 122.932 702.781 124.06C704.725 125.164 706.237 126.664 707.317 128.56L705.085 129.856C704.293 128.32 703.117 127.096 701.557 126.184C699.997 125.272 698.281 124.816 696.409 124.816C693.241 124.816 690.673 125.836 688.705 127.876C686.713 129.94 685.717 132.448 685.717 135.4C685.717 138.352 686.713 140.86 688.705 142.924C690.673 144.964 693.241 145.984 696.409 145.984C698.281 145.984 699.997 145.528 701.557 144.616C703.117 143.704 704.293 142.48 705.085 140.944L707.317 142.204C706.285 144.1 704.785 145.612 702.817 146.74C700.849 147.868 698.713 148.432 696.409 148.432ZM729.065 131.08L728.705 133.24H724.421L723.701 137.56H728.021L727.661 139.72H723.341L722.261 146.2H719.957L721.037 139.72H716.285L715.205 146.2H712.901L713.981 139.72H709.661L710.021 137.56H714.341L715.061 133.24H710.705L711.065 131.08H715.421L716.501 124.6H718.805L717.725 131.08H722.477L723.557 124.6H725.861L724.781 131.08H729.065ZM716.645 137.56H721.397L722.117 133.24H717.365L716.645 137.56ZM756.592 148H740.572V145.732L749.644 136.588C752.236 133.996 753.532 131.776 753.532 129.928C753.532 128.368 753.04 127.132 752.056 126.22C751.096 125.284 749.896 124.816 748.456 124.816C745.888 124.816 744.004 126.004 742.804 128.38L740.68 127.12C741.448 125.584 742.516 124.408 743.884 123.592C745.252 122.776 746.776 122.368 748.456 122.368C750.472 122.368 752.236 123.052 753.748 124.42C755.284 125.74 756.052 127.576 756.052 129.928C756.052 131.32 755.668 132.688 754.9 134.032C754.132 135.352 752.956 136.804 751.372 138.388L744.172 145.552H756.592V148ZM763.162 132.952H767.41C769.786 132.952 771.778 133.648 773.386 135.04C775.042 136.408 775.87 138.292 775.87 140.692C775.87 143.068 775.042 144.964 773.386 146.38C771.778 147.748 769.786 148.432 767.41 148.432C765.466 148.432 763.75 147.964 762.262 147.028C760.798 146.068 759.814 144.748 759.31 143.068L761.434 141.844C761.794 143.164 762.502 144.184 763.558 144.904C764.614 145.624 765.898 145.984 767.41 145.984C769.186 145.984 770.614 145.516 771.694 144.58C772.798 143.62 773.35 142.324 773.35 140.692C773.35 139.06 772.798 137.776 771.694 136.84C770.614 135.88 769.186 135.4 767.41 135.4H760.57L761.47 122.8H774.97V125.176H763.702L763.162 132.952ZM782.728 146.38C782.728 146.932 782.536 147.4 782.152 147.784C781.768 148.168 781.3 148.36 780.748 148.36C780.196 148.36 779.728 148.168 779.344 147.784C778.96 147.4 778.768 146.932 778.768 146.38C778.768 145.828 778.96 145.36 779.344 144.976C779.728 144.592 780.196 144.4 780.748 144.4C781.3 144.4 781.768 144.592 782.152 144.976C782.536 145.36 782.728 145.828 782.728 146.38ZM785.445 125.104L792.105 122.8H794.265V148H791.745V125.572L786.093 127.264L785.445 125.104ZM797.859 125.176V122.8H813.339V125.176L803.835 148H801.207L810.711 125.176H797.859ZM822.456 133.168C820.872 133.168 819.564 132.652 818.532 131.62C817.476 130.564 816.948 129.28 816.948 127.768C816.948 126.28 817.476 125.008 818.532 123.952C819.588 122.896 820.896 122.368 822.456 122.368C824.016 122.368 825.324 122.896 826.38 123.952C827.436 125.008 827.964 126.28 827.964 127.768C827.964 129.304 827.448 130.588 826.416 131.62C825.384 132.652 824.064 133.168 822.456 133.168ZM819.252 127.768C819.252 128.68 819.552 129.448 820.152 130.072C820.752 130.696 821.52 131.008 822.456 131.008C823.392 131.008 824.16 130.696 824.76 130.072C825.36 129.448 825.66 128.68 825.66 127.768C825.66 126.856 825.36 126.088 824.76 125.464C824.16 124.84 823.392 124.528 822.456 124.528C821.52 124.528 820.752 124.84 820.152 125.464C819.552 126.088 819.252 126.856 819.252 127.768ZM819.72 145.444L818.208 144.58L835.092 125.608L836.64 126.472L819.72 145.444ZM836.568 146.884C835.536 147.916 834.228 148.432 832.644 148.432C831.06 148.432 829.752 147.916 828.72 146.884C827.664 145.828 827.136 144.544 827.136 143.032C827.136 141.544 827.664 140.272 828.72 139.216C829.776 138.16 831.084 137.632 832.644 137.632C834.204 137.632 835.512 138.16 836.568 139.216C837.624 140.272 838.152 141.544 838.152 143.032C838.152 144.544 837.624 145.828 836.568 146.884ZM829.44 143.032C829.44 143.944 829.74 144.712 830.34 145.336C830.94 145.96 831.708 146.272 832.644 146.272C833.58 146.272 834.348 145.96 834.948 145.336C835.548 144.712 835.848 143.944 835.848 143.032C835.848 142.12 835.548 141.352 834.948 140.728C834.348 140.104 833.58 139.792 832.644 139.792C831.708 139.792 830.94 140.104 830.34 140.728C829.74 141.352 829.44 142.12 829.44 143.032Z" fill="white"/>
<ellipse cx="648.16" cy="135" rx="13.2352" ry="13" fill="#5ECC64"/>
<path d="M690.695 216.432C688.895 216.432 687.311 216.06 685.943 215.316C684.575 214.572 683.603 213.504 683.027 212.112L685.151 210.852C685.943 212.94 687.791 213.984 690.695 213.984C692.495 213.984 693.899 213.552 694.907 212.688C695.939 211.824 696.455 210.552 696.455 208.872V190.8H698.975V208.872C698.975 211.32 698.183 213.192 696.599 214.488C695.039 215.784 693.071 216.432 690.695 216.432ZM719.31 201.528V198H721.686V216H719.31V212.472C717.654 215.112 715.23 216.432 712.038 216.432C709.47 216.432 707.274 215.52 705.45 213.696C703.65 211.872 702.75 209.64 702.75 207C702.75 204.36 703.65 202.128 705.45 200.304C707.274 198.48 709.47 197.568 712.038 197.568C715.23 197.568 717.654 198.888 719.31 201.528ZM707.178 212.076C708.546 213.444 710.226 214.128 712.218 214.128C714.21 214.128 715.89 213.444 717.258 212.076C718.626 210.66 719.31 208.968 719.31 207C719.31 205.008 718.626 203.328 717.258 201.96C715.89 200.568 714.21 199.872 712.218 199.872C710.226 199.872 708.546 200.568 707.178 201.96C705.81 203.328 705.126 205.008 705.126 207C705.126 208.968 705.81 210.66 707.178 212.076ZM733.376 213.516L739.676 198H742.196L734.816 216H731.936L724.556 198H727.076L733.376 213.516ZM759.845 201.528V198H762.221V216H759.845V212.472C758.189 215.112 755.765 216.432 752.573 216.432C750.005 216.432 747.809 215.52 745.985 213.696C744.185 211.872 743.285 209.64 743.285 207C743.285 204.36 744.185 202.128 745.985 200.304C747.809 198.48 750.005 197.568 752.573 197.568C755.765 197.568 758.189 198.888 759.845 201.528ZM747.713 212.076C749.081 213.444 750.761 214.128 752.753 214.128C754.745 214.128 756.425 213.444 757.793 212.076C759.161 210.66 759.845 208.968 759.845 207C759.845 205.008 759.161 203.328 757.793 201.96C756.425 200.568 754.745 199.872 752.753 199.872C750.761 199.872 749.081 200.568 747.713 201.96C746.345 203.328 745.661 205.008 745.661 207C745.661 208.968 746.345 210.66 747.713 212.076ZM775.531 216.432C773.227 216.432 771.247 215.892 769.591 214.812C767.959 213.708 766.819 212.196 766.171 210.276L768.331 209.016C768.787 210.6 769.627 211.824 770.851 212.688C772.099 213.552 773.671 213.984 775.567 213.984C777.415 213.984 778.867 213.576 779.923 212.76C780.979 211.944 781.507 210.84 781.507 209.448C781.507 208.128 781.027 207.132 780.067 206.46C779.131 205.788 777.547 205.092 775.315 204.372C772.651 203.484 770.923 202.788 770.131 202.284C768.211 201.132 767.251 199.464 767.251 197.28C767.251 195.144 767.995 193.464 769.483 192.24C770.947 190.992 772.783 190.368 774.991 190.368C776.887 190.368 778.567 190.872 780.031 191.88C781.495 192.864 782.587 194.172 783.307 195.804L781.183 196.992C780.031 194.208 777.967 192.816 774.991 192.816C773.407 192.816 772.135 193.212 771.175 194.004C770.239 194.772 769.771 195.828 769.771 197.172C769.771 198.444 770.203 199.38 771.067 199.98C771.955 200.604 773.383 201.24 775.351 201.888L777.295 202.572C777.703 202.692 778.279 202.908 779.023 203.22C779.839 203.532 780.403 203.796 780.715 204.012C781.987 204.78 782.791 205.488 783.127 206.136C783.727 207.096 784.027 208.176 784.027 209.376C784.027 211.512 783.247 213.228 781.687 214.524C780.127 215.796 778.075 216.432 775.531 216.432ZM796.733 216.432C794.021 216.432 791.765 215.532 789.965 213.732C788.165 211.884 787.265 209.64 787.265 207C787.265 204.336 788.165 202.104 789.965 200.304C791.765 198.48 794.021 197.568 796.733 197.568C798.509 197.568 800.105 198 801.521 198.864C802.937 199.704 803.969 200.844 804.617 202.284L802.673 203.4C802.193 202.32 801.413 201.468 800.333 200.844C799.277 200.196 798.077 199.872 796.733 199.872C794.741 199.872 793.061 200.568 791.693 201.96C790.325 203.328 789.641 205.008 789.641 207C789.641 208.968 790.325 210.66 791.693 212.076C793.061 213.444 794.741 214.128 796.733 214.128C798.053 214.128 799.241 213.816 800.297 213.192C801.377 212.568 802.217 211.704 802.817 210.6L804.797 211.752C804.053 213.192 802.961 214.332 801.521 215.172C800.081 216.012 798.485 216.432 796.733 216.432ZM810.584 198V200.988C811.688 198.804 813.584 197.712 816.272 197.712V200.016C814.544 200.016 813.164 200.52 812.132 201.528C811.1 202.512 810.584 204 810.584 205.992V216H808.208V198H810.584ZM822.445 192.456C822.445 192.936 822.277 193.344 821.941 193.68C821.605 194.016 821.197 194.184 820.717 194.184C820.237 194.184 819.829 194.016 819.493 193.68C819.157 193.344 818.989 192.936 818.989 192.456C818.989 191.976 819.157 191.568 819.493 191.232C819.829 190.896 820.237 190.728 820.717 190.728C821.197 190.728 821.605 190.896 821.941 191.232C822.277 191.568 822.445 191.976 822.445 192.456ZM821.905 216H819.529V198H821.905V216ZM836.595 197.568C839.163 197.568 841.347 198.48 843.147 200.304C844.971 202.128 845.883 204.36 845.883 207C845.883 209.64 844.971 211.872 843.147 213.696C841.347 215.52 839.163 216.432 836.595 216.432C833.403 216.432 830.979 215.112 829.323 212.472V223.2H826.947V198H829.323V201.528C830.979 198.888 833.403 197.568 836.595 197.568ZM831.375 212.076C832.743 213.444 834.423 214.128 836.415 214.128C838.407 214.128 840.087 213.444 841.455 212.076C842.823 210.66 843.507 208.968 843.507 207C843.507 205.008 842.823 203.328 841.455 201.96C840.087 200.568 838.407 199.872 836.415 199.872C834.423 199.872 832.743 200.568 831.375 201.96C830.007 203.328 829.323 205.008 829.323 207C829.323 208.968 830.007 210.66 831.375 212.076ZM859.022 198V200.304H853.838V211.212C853.838 212.196 854.03 212.904 854.414 213.336C854.798 213.744 855.374 213.96 856.142 213.984C856.91 213.984 857.87 213.96 859.022 213.912V216C856.454 216.384 854.546 216.204 853.298 215.46C852.074 214.692 851.462 213.276 851.462 211.212V200.304H847.682V198H851.462V193.68L853.838 192.96V198H859.022ZM887.822 212.904C886.166 215.256 883.826 216.432 880.802 216.432C877.802 216.432 875.45 215.256 873.746 212.904C872.09 210.528 871.262 207.36 871.262 203.4C871.262 199.416 872.09 196.26 873.746 193.932C875.45 191.556 877.802 190.368 880.802 190.368C883.826 190.368 886.166 191.556 887.822 193.932C889.502 196.26 890.342 199.416 890.342 203.4C890.342 207.384 889.502 210.552 887.822 212.904ZM875.618 211.212C876.89 213.06 878.618 213.984 880.802 213.984C883.01 213.984 884.726 213.06 885.95 211.212C887.198 209.388 887.822 206.784 887.822 203.4C887.822 200.016 887.198 197.412 885.95 195.588C884.726 193.74 883.01 192.816 880.802 192.816C878.618 192.816 876.89 193.74 875.618 195.588C874.394 197.436 873.782 200.04 873.782 203.4C873.782 206.76 874.394 209.364 875.618 211.212ZM897.168 214.38C897.168 214.932 896.976 215.4 896.592 215.784C896.208 216.168 895.74 216.36 895.188 216.36C894.636 216.36 894.168 216.168 893.784 215.784C893.4 215.4 893.208 214.932 893.208 214.38C893.208 213.828 893.4 213.36 893.784 212.976C894.168 212.592 894.636 212.4 895.188 212.4C895.74 212.4 896.208 212.592 896.592 212.976C896.976 213.36 897.168 213.828 897.168 214.38ZM900.065 193.176V190.8H915.545V193.176L906.041 216H903.413L912.917 193.176H900.065ZM923.65 199.8C926.098 199.8 928.126 200.58 929.734 202.14C931.318 203.7 932.11 205.692 932.11 208.116C932.11 210.588 931.318 212.592 929.734 214.128C928.174 215.664 926.146 216.432 923.65 216.432C921.154 216.432 919.126 215.664 917.566 214.128C915.982 212.592 915.19 210.588 915.19 208.116C915.19 206.22 915.706 204.54 916.738 203.076L924.982 190.8H927.826L921.634 200.016C922.282 199.872 922.954 199.8 923.65 199.8ZM919.33 212.364C920.458 213.444 921.898 213.984 923.65 213.984C925.426 213.984 926.854 213.444 927.934 212.364C929.038 211.284 929.59 209.868 929.59 208.116C929.59 206.364 929.038 204.948 927.934 203.868C926.854 202.788 925.426 202.248 923.65 202.248C921.898 202.248 920.458 202.788 919.33 203.868C918.25 204.948 917.71 206.364 917.71 208.116C917.71 209.868 918.25 211.284 919.33 212.364ZM939.778 201.168C938.194 201.168 936.886 200.652 935.854 199.62C934.798 198.564 934.27 197.28 934.27 195.768C934.27 194.28 934.798 193.008 935.854 191.952C936.91 190.896 938.218 190.368 939.778 190.368C941.338 190.368 942.646 190.896 943.702 191.952C944.758 193.008 945.286 194.28 945.286 195.768C945.286 197.304 944.77 198.588 943.738 199.62C942.706 200.652 941.386 201.168 939.778 201.168ZM936.574 195.768C936.574 196.68 936.874 197.448 937.474 198.072C938.074 198.696 938.842 199.008 939.778 199.008C940.714 199.008 941.482 198.696 942.082 198.072C942.682 197.448 942.982 196.68 942.982 195.768C942.982 194.856 942.682 194.088 942.082 193.464C941.482 192.84 940.714 192.528 939.778 192.528C938.842 192.528 938.074 192.84 937.474 193.464C936.874 194.088 936.574 194.856 936.574 195.768ZM937.042 213.444L935.53 212.58L952.414 193.608L953.962 194.472L937.042 213.444ZM953.89 214.884C952.858 215.916 951.55 216.432 949.966 216.432C948.382 216.432 947.074 215.916 946.042 214.884C944.986 213.828 944.458 212.544 944.458 211.032C944.458 209.544 944.986 208.272 946.042 207.216C947.098 206.16 948.406 205.632 949.966 205.632C951.526 205.632 952.834 206.16 953.89 207.216C954.946 208.272 955.474 209.544 955.474 211.032C955.474 212.544 954.946 213.828 953.89 214.884ZM946.762 211.032C946.762 211.944 947.062 212.712 947.662 213.336C948.262 213.96 949.03 214.272 949.966 214.272C950.902 214.272 951.67 213.96 952.27 213.336C952.87 212.712 953.17 211.944 953.17 211.032C953.17 210.12 952.87 209.352 952.27 208.728C951.67 208.104 950.902 207.792 949.966 207.792C949.03 207.792 948.262 208.104 947.662 208.728C947.062 209.352 946.762 210.12 946.762 211.032Z" fill="white"/>
<ellipse cx="647.99" cy="203" rx="13.2352" ry="13" fill="#F1E05A"/>
</svg>
